<svg xmlns="http://www.w3.org/2000/svg" viewBox="0 0 48 48" fill="none" stroke="#000000" stroke-width="2" stroke-linecap="round" stroke-linejoin="round" width="48" height="48"><path d="M8 22c0-7 7-12 16-12s16 5 16 12z"></path><path d="M19 15.5l1 .5M24 14h1M28.5 16l.5-1"></path><path d="M7 26c2.3-1.5 4.3 1.5 6.6 0s4.3 1.5 6.6 0 4.3 1.5 6.6 0 4.3 1.5 6.6 0 4.3 1.5 6.6 0"></path><rect x="8" y="29" width="32" height="5" rx="2.5"></rect><path d="M9 37h30c0 2-2 3.5-4 3.5H13c-2 0-4-1.5-4-3.5z"></path></svg>
